<svg width="512" height="512" viewBox="0 0 512 512" fill="none" xmlns="http://www.w3.org/2000/svg">
  <path
    d="M35.0438 95.6482C95.14 8.03572 165.969 -7.0275 260.697 2.48703C327.106 9.15721 387.743 44.7338 418.063 111.302C415.45 111.111 412.814 111.012 410.157 111.012C345.264 111.013 292.657 168.992 292.657 240.512C292.657 312.033 345.264 370.012 410.157 370.012C420.938 370.012 431.38 368.41 441.298 365.413C438.791 400.031 428.803 423.688 399.266 443.607C338.985 484.259 274.789 511.938 202.765 511.938C142.054 511.938 153.654 467.076 111.91 393.41C156.401 381.08 189.343 336.691 189.343 283.817C189.343 221.409 143.452 170.817 86.8427 170.817C53.9504 170.817 24.6772 187.898 5.92175 214.452C-2.30031 175.695 5.89519 138.143 35.0438 95.6482Z"
    fill="#B6E284" />
  <ellipse cx="415" cy="242.438" rx="86" ry="96.5" fill="#B6E284" />
  <ellipse cx="78.5" cy="288.938" rx="75.5" ry="84" fill="#B6E284" />
</svg>